<?xml version="1.0" encoding="UTF-8" standalone="no" ?>
<!DOCTYPE svg PUBLIC "-//W3C//DTD SVG 1.1//EN" "http://www.w3.org/Graphics/SVG/1.1/DTD/svg11.dtd">
<svg xmlns="http://www.w3.org/2000/svg" xmlns:xlink="http://www.w3.org/1999/xlink" version="1.1" width="1080" height="1080" viewBox="0 0 1080 1080" xml:space="preserve">
<desc>Created with Fabric.js 5.2.4</desc>
<defs>
</defs>
<g transform="matrix(1 0 0 1 540 540)" id="014eff57-f76b-413b-91c5-72aaa87c114f"  >
<rect style="stroke: none; stroke-width: 1; stroke-dasharray: none; stroke-linecap: butt; stroke-dashoffset: 0; stroke-linejoin: miter; stroke-miterlimit: 4; fill: rgb(255,255,255); fill-rule: nonzero; opacity: 1; visibility: hidden;" vector-effect="non-scaling-stroke"  x="-540" y="-540" rx="0" ry="0" width="1080" height="1080" />
</g>
<g transform="matrix(1 0 0 1 540 540)" id="61c6dfa3-6dc3-4e9c-9708-d0d0586e0d88"  >
</g>
<g transform="matrix(1 0 0 1 88.2 86.11)"  >
<g style="" vector-effect="non-scaling-stroke"   >
		<g transform="matrix(1.07 0 0 1.05 11.66 -33.52)"  >
<path style="stroke: none; stroke-width: 1; stroke-dasharray: none; stroke-linecap: butt; stroke-dashoffset: 0; stroke-linejoin: miter; stroke-miterlimit: 4; fill: rgb(118,63,152); fill-rule: nonzero; opacity: 1;" vector-effect="non-scaling-stroke"  transform=" translate(-53.62, -51.9)" d="M 53.616 7.59 C 29.144 7.59 9.306 27.427 9.306 51.897 C 9.306 76.367 29.144 96.207 53.616 96.207 C 78.088 96.207 97.926 76.369 97.926 51.897 C 97.926 27.425 78.086 7.59 53.616 7.59 Z M 25.854 52.092 L 18.524 48.035 L 23.919 45.047 L 53.839 28.747 L 51.579 27.5 L 63.312 27.287 L 62.689 33.66 L 61.049 32.732 L 61.044 32.729 L 25.854 51.899 L 25.854 52.092 Z M 37.546 58.565 L 30.209 54.503 L 30.209 54.485 L 65.387 35.32 L 63.192 34.107 L 74.924 33.895 L 74.301 40.268 L 72.661 39.34 L 72.591 39.302 L 37.546 58.395 L 37.546 58.565 Z M 49.239 65.037 L 41.904 60.977 L 76.931 41.897 L 74.953 40.804 L 86.686 40.592 L 86.063 46.965 L 84.423 46.037 L 84.136 45.877 L 49.239 64.889 L 49.239 65.037 Z" stroke-linecap="round" />
</g>
		<g transform="matrix(1.07 0 0 1.05 11.66 -21.66)"  >
<path style="stroke: none; stroke-width: 1; stroke-dasharray: none; stroke-linecap: butt; stroke-dashoffset: 0; stroke-linejoin: miter; stroke-miterlimit: 4; fill: rgb(255,255,255); fill-rule: nonzero; opacity: 1;" vector-effect="non-scaling-stroke"  transform=" translate(-53.62, -63.19)" d="M 25.853 52.092 L 25.853 62.977 L 18.523 58.917 L 18.523 48.035 L 25.853 52.092 Z M 49.238 65.037 L 49.238 75.922 L 41.901 71.86 L 41.901 60.98 L 41.903 60.977 L 49.238 65.037 Z M 37.546 58.565 L 37.546 69.45 L 30.209 65.388 L 30.209 54.502 L 37.546 58.565 Z M 88.709 48.342 L 88.709 58.917 L 83.394 61.859 L 83.394 56.369 L 74.034 61.551 L 74.034 67.041 L 68.719 69.981 L 68.719 64.493 L 58.931 69.91 L 58.931 75.4 L 53.616 78.343 L 53.593 78.33 L 53.593 67.475 L 88.708 48.343 L 88.709 48.342 Z" stroke-linecap="round" />
</g>
		<g transform="matrix(1.07 0 0 1.05 10.57 -39.54)"  >
<path style="stroke: none; stroke-width: 1; stroke-dasharray: none; stroke-linecap: butt; stroke-dashoffset: 0; stroke-linejoin: miter; stroke-miterlimit: 4; fill: rgb(255,205,52); fill-rule: nonzero; opacity: 1;" vector-effect="non-scaling-stroke"  transform=" translate(-52.6, -46.16)" d="M 63.311 27.287 L 62.688 33.659 L 61.048 32.732 L 61.043 32.729 L 25.853 51.899 L 25.853 52.092 L 18.523 48.034 L 23.918 45.047 L 53.838 28.747 L 51.578 27.5 L 63.311 27.287 Z M 86.686 40.592 L 86.063 46.964 L 84.423 46.037 L 84.136 45.877 L 49.239 64.89 L 49.239 65.037 L 41.904 60.977 L 76.931 41.897 L 74.953 40.804 L 86.686 40.592 Z M 74.924 33.895 L 74.301 40.268 L 72.661 39.34 L 72.591 39.302 L 37.546 58.395 L 37.546 58.565 L 30.209 54.503 L 30.209 54.485 L 65.387 35.32 L 63.192 34.107 L 74.924 33.895 Z" stroke-linecap="round" />
</g>
		<g transform="matrix(0.37 0 0 0.37 0 1.38)"  >
<path style="stroke: none; stroke-width: 1; stroke-dasharray: none; stroke-linecap: butt; stroke-dashoffset: 0; stroke-linejoin: miter; stroke-miterlimit: 4; fill: rgb(0,0,0); fill-rule: nonzero; opacity: 1;" vector-effect="non-scaling-stroke"  transform=" translate(-223.43, -223.43)" d="M 444.274 93.36 C 441.716 89.694 437.6 87.428 433.129 87.237 L 424.978 87.166 C 420.793 90.119 418.618 92.321 416.583 99.625 C 414.548 106.929 414.266 107.97 414.255 109.993 L 413.131 115.076 L 362.32 273.61 L 136.205 273.61 L 95.354 51.179 C 94.456 46.304 91.109 42.237 86.493 40.426 L 19.586 14.141 C 12.212 11.254 3.891 14.876 0.995 22.241 C -1.896 29.61 1.725 37.936 9.095 40.832 L 68.586 64.203 L 110.158 290.538 C 111.411 297.342 117.341 302.284 124.262 302.284 L 131.158 302.284 L 115.411 346.024 C 114.093 349.688 114.636 353.757 116.879 356.94 C 119.119 360.124 122.762 362.018 126.651 362.018 L 137.696 362.018 C 130.852 369.635 126.651 379.664 126.651 390.693 C 126.651 414.411 145.95 433.705 169.663 433.705 C 193.376 433.705 212.675 414.411 212.675 390.693 C 212.675 379.665 208.474 369.635 201.631 362.018 L 295.408 362.018 C 288.561 369.635 284.361 379.664 284.361 390.693 C 284.361 414.411 303.655 433.705 327.373 433.705 C 351.092 433.705 370.385 414.411 370.385 390.693 C 370.385 379.665 366.185 369.635 359.343 362.018 L 372.775 362.018 C 379.375 362.018 384.723 356.669 384.723 350.071 C 384.723 343.471 379.374 338.123 372.775 338.123 L 143.651 338.123 L 156.553 302.28 L 372.774 302.28 C 379.009 302.28 384.526 298.252 386.425 292.32 L 446.164 105.933 C 447.536 101.679 446.832 97.028 444.274 93.36 Z M 169.664 409.814 C 159.121 409.814 150.547 401.241 150.547 390.698 C 150.547 380.155 159.121 371.581 169.664 371.581 C 180.207 371.581 188.78 380.155 188.78 390.698 C 188.78 401.241 180.207 409.814 169.664 409.814 Z M 327.373 409.814 C 316.83 409.814 308.257 401.241 308.257 390.698 C 308.257 380.155 316.83 371.581 327.373 371.581 C 337.916 371.581 346.489 380.155 346.489 390.698 C 346.489 401.241 337.916 409.814 327.373 409.814 Z" stroke-linecap="round" />
</g>
</g>
</g>
</svg>